<?xml version="1.0" standalone="no"?><!DOCTYPE svg PUBLIC "-//W3C//DTD SVG 1.1//EN" "http://www.w3.org/Graphics/SVG/1.1/DTD/svg11.dtd"><svg t="1697098471375" class="icon" viewBox="0 0 1024 1024" version="1.1" xmlns="http://www.w3.org/2000/svg" p-id="4019" xmlns:xlink="http://www.w3.org/1999/xlink" width="200" height="200"><path d="M1022.028418 510.828259c0 281.360557-228.08199 509.452736-509.452736 509.452736-281.360557 0-509.452736-228.092179-509.452737-509.452736 0-281.370746 228.092179-509.452736 509.452737-509.452737 281.370746 0 509.452736 228.08199 509.452736 509.452737" fill="#F4F4F4" p-id="4020"></path><path d="M493.231761 165.210428L229.100896 739.618388c-67.288517-30.363383-114.127602-98.023801-114.127602-176.652736 0-106.985075 86.724139-193.699025 193.704119-193.699025 4.335443 0 8.640318 0.152836 12.894249 0.443224a199.420179 199.420179 0 0 1-0.38209-12.002707c0-99.659144 75.276736-181.73198 172.047284-192.496716M591.907662 179.923423L326.71204 756.664677h-18.034627a193.133532 193.133532 0 0 1-65.607323-11.396458l267.258905-581.219343a193.062209 193.062209 0 0 1 81.578667 15.874547M667.311761 238.16406L428.882786 756.664677H351.420498l260.544318-566.623523a194.524338 194.524338 0 0 1 55.346945 48.122906M711.511881 369.343045l-178.104677 387.321632H454.008995l228.285771-496.461692a192.812577 192.812577 0 0 1 26.287761 97.504159c0 3.932975-0.127363 7.855761-0.356617 11.742886 1.090229-0.040756 2.190647-0.076418 3.280876-0.106985M800.793473 388.52394l-169.291145 368.145831h-72.138507l177.646169-386.323104a192.160478 192.160478 0 0 1 63.783483 18.177273M876.640796 453.973333l-138.642468 301.504319a192.379542 192.379542 0 0 1-21.519283 1.187025h-49.641075l161.720677-351.710886a195.120398 195.120398 0 0 1 48.082149 49.014448M910.188259 562.965652c0 82.867582-52.015124 153.569433-125.182727 181.222527L898.674627 497.032279a193.459582 193.459582 0 0 1 11.513632 65.933373M493.231761 165.210428L229.100896 739.618388M510.33409 164.048876l-267.258906 581.219343M591.907662 179.923423L326.71204 756.664677M611.964816 190.041154L351.415403 756.669771M667.311761 238.16406l-238.42388 518.500617M682.299861 260.202985l-228.285771 496.461692M711.511881 369.343045l-178.104677 387.321632M737.00999 370.341572l-177.646169 386.323105M800.793473 388.52394l-169.291145 368.145831M828.558647 404.953791l-161.720677 351.710886M876.640796 453.973333l-138.642468 301.504319M898.674627 497.027184l-113.669095 247.160995" fill="#0070FF" p-id="4021"></path></svg>